<svg width="16" height="16" viewBox="0 0 11 16" fill="none" xmlns="http://www.w3.org/2000/svg">
<path d="M9.22888 1.09835C9.04058 0.93405 8.75989 0.934006 8.57154 1.09825L1.1303 7.58707C0.901773 7.78635 0.901787 8.14153 1.13033 8.34079L2.10008 9.18628C2.10032 9.18649 2.10062 9.1866 2.10094 9.1866C2.10125 9.1866 2.10156 9.18672 2.10179 9.18693L8.65452 14.9018C8.84288 15.0661 9.12361 15.0661 9.31192 14.9017L9.87075 14.4141C10.0991 14.2148 10.0991 13.8597 9.8706 13.6605L3.85293 8.41306C3.62441 8.21379 3.62441 7.85863 3.85293 7.65937L9.87057 2.41196C10.099 2.21274 10.0991 1.85767 9.87069 1.65837L9.22888 1.09835Z" fill="#C0C0C0"/>
</svg>
