<svg width="33" height="33" viewBox="0 0 33 33" fill="none" xmlns="http://www.w3.org/2000/svg">
<circle cx="16.5" cy="16.5" r="16.5" fill="white"/>
<circle cx="16.5" cy="16.5" r="15.5" fill="#DFDFDF"/>
<path d="M16.5 1C12.914 1 9.43893 2.2434 6.6669 4.51834C3.89488 6.79328 1.99742 9.959 1.29783 13.4761C0.598233 16.9932 1.13979 20.6441 2.83022 23.8066C4.52065 26.9692 7.25537 29.4478 10.5684 30.8201C13.8814 32.1924 17.5678 32.3735 20.9994 31.3326C24.431 30.2916 27.3955 28.093 29.3878 25.1113C31.3801 22.1297 32.2769 18.5495 31.9254 14.9807C31.5739 11.412 29.9958 8.07554 27.4602 5.53985L16.5 16.5L16.5 1Z" fill="#FD6C6E"/>
<path d="M16.5234 22.1172C14.7539 22.1172 13.4648 21.0742 13.4297 19.6094H15.1406C15.1758 20.2773 15.7852 20.7227 16.5234 20.7227C17.4023 20.7227 18.0234 20.1016 18.0234 19.2227C18.0234 18.3203 17.3906 17.6992 16.5 17.6875C15.8672 17.6875 15.4219 17.9219 15.1641 18.4023H13.5703L14.0273 13.5156H19.2539V14.957H15.4805L15.2461 17.1016H15.3164C15.6328 16.6797 16.2656 16.3867 17.0156 16.3867C18.5742 16.3867 19.7344 17.5469 19.7344 19.1758C19.7344 20.8867 18.4336 22.1172 16.5234 22.1172Z" fill="#364153"/>
</svg>
