<svg width="24" height="24" viewBox="0 0 24 24" fill="none" xmlns="http://www.w3.org/2000/svg">
  <!-- 몸통 -->
  <path d="M12 21C16.4183 21 20 17.4183 20 13C20 8.58172 16.4183 5 12 5C7.58172 5 4 8.58172 4 13C4 17.4183 7.58172 21 12 21Z" stroke="#4A0F0B" stroke-width="2"/>
  <!-- 중앙 선 -->
  <path d="M12 5V21" stroke="#4A0F0B" stroke-width="1.5" stroke-linecap="round"/>
  <!-- 다리들 -->
  <path d="M4 11H2M4 15H2M20 11H22M20 15H22" stroke="#4A0F0B" stroke-width="2" stroke-linecap="round"/>
  <!-- 더듬이 -->
  <path d="M9 4C9 4 9 2 10 2M15 4C15 4 15 2 14 2" stroke="#4A0F0B" stroke-width="1.5" stroke-linecap="round"/>
  <!-- 눈 -->
  <circle cx="8.5" cy="8.5" r="1" fill="#4A0F0B"/>
  <circle cx="15.5" cy="8.5" r="1" fill="#4A0F0B"/>
</svg>
