<svg width="300" height="180" viewBox="0 0 300 180" fill="none" xmlns="http://www.w3.org/2000/svg">
<mask id="path-1-inside-1_1622_635" fill="white">
<path d="M150 0C232.843 9.45078e-08 300 21.8922 300 77.0273C300 132.162 232.843 154.054 150 154.054C119.825 154.054 91.7323 151.04 68.207 144.585L71.9697 180L52.7979 139.605C20.4915 127.392 0.000147071 107.034 0 77.0273C0 22.703 67.1573 0 150 0Z"/>
</mask>
<path d="M150 0V-1.5V0ZM300 77.0273L301.5 77.0274V77.0273H300ZM150 154.054L150 155.554L150 154.054ZM68.207 144.585L68.6039 143.138L66.4831 142.556L66.7154 144.743L68.207 144.585ZM71.9697 180L70.6146 180.643L73.4613 179.842L71.9697 180ZM52.7979 139.605L54.153 138.962L53.8938 138.416L53.3283 138.202L52.7979 139.605ZM0 77.0273L-1.5 77.0273L-1.5 77.0274L0 77.0273ZM150 0L150 1.5C191.328 1.5 228.581 6.96633 255.444 19.203C282.255 31.4158 298.5 50.2403 298.5 77.0273H300H301.5C301.5 48.6792 284.166 28.99 256.688 16.4729C229.262 3.97978 191.515 -1.5 150 -1.5L150 0ZM300 77.0273L298.5 77.0273C298.5 103.814 282.255 122.638 255.444 134.851C228.581 147.088 191.328 152.554 150 152.554L150 154.054L150 155.554C191.515 155.554 229.262 150.074 256.688 137.581C284.166 125.064 301.5 105.375 301.5 77.0274L300 77.0273ZM150 154.054V152.554C119.914 152.554 91.9626 149.548 68.6039 143.138L68.207 144.585L67.8101 146.031C91.5021 152.532 119.736 155.554 150 155.554V154.054ZM68.207 144.585L66.7154 144.743L70.4781 180.158L71.9697 180L73.4613 179.842L69.6986 144.426L68.207 144.585ZM71.9697 180L73.3248 179.357L54.153 138.962L52.7979 139.605L51.4427 140.249L70.6146 180.643L71.9697 180ZM52.7979 139.605L53.3283 138.202C21.312 126.098 1.50014 106.147 1.5 77.0273L0 77.0273L-1.5 77.0274C-1.49985 107.922 19.6709 128.685 52.2674 141.009L52.7979 139.605ZM0 77.0273H1.5C1.5 50.6508 17.7391 31.8228 44.56 19.5052C71.4247 7.16745 108.679 1.5 150 1.5V0V-1.5C108.479 -1.5 70.7326 4.18407 43.308 16.7789C15.8395 29.3939 -1.5 49.0796 -1.5 77.0273H0Z" fill="white" mask="url(#path-1-inside-1_1622_635)"/>
</svg>
