<svg width="24" height="24" viewBox="0 0 24 24" fill="none" xmlns="http://www.w3.org/2000/svg">
  <!-- 컨트롤러 메인 바디 (부드러운 곡선형) -->
  <path d="M7 7H17C19.5 7 22 9 22 12.5C22 16 20 18.5 17.5 18.5C16 18.5 15 17.5 14 16H10C9 17.5 8 18.5 6.5 18.5C4 18.5 2 16 2 12.5C2 9 4.5 7 7 7Z" stroke="#4A0F0B" stroke-width="2" stroke-linecap="round" stroke-linejoin="round"/>
  
  <!-- 왼쪽 십자키 (플러스 형태) -->
  <path d="M6 12.5H9M7.5 11V14" stroke="#4A0F0B" stroke-width="1.8" stroke-linecap="round"/>
  
  <!-- 오른쪽 버튼들 (다이아몬드 배치) -->
  <circle cx="16.5" cy="11" r="1.1" fill="#4A0F0B"/>
  <circle cx="15" cy="12.5" r="1.1" fill="#4A0F0B"/>
  <circle cx="18" cy="12.5" r="1.1" fill="#4A0F0B"/>
  <circle cx="16.5" cy="14" r="1.1" fill="#4A0F0B"/>
  
  <!-- 중앙 옵션 버튼들 -->
  <rect x="11" y="9.5" width="2" height="1" rx="0.5" fill="#4A0F0B" opacity="0.6"/>
</svg>
