<svg width="14" height="24" viewBox="0 0 14 24" fill="none" xmlns="http://www.w3.org/2000/svg">
<path d="M9.43368 11.5943C9.62255 11.7884 9.62256 12.0976 9.4337 12.2917L0.93646 21.0249C0.747604 21.219 0.747613 21.5282 0.936478 21.7223L2.10896 22.9273C2.30527 23.129 2.62935 23.129 2.82565 22.9272L13.0636 12.4059C13.2524 12.2118 13.2524 11.9026 13.0636 11.7085L11.5331 10.1357C11.5329 10.1355 11.5326 10.1354 11.5322 10.1354V10.1354C11.5319 10.1354 11.5316 10.1352 11.5314 10.135L2.71424 1.07291C2.51797 0.871184 2.19394 0.871138 1.99761 1.07281L0.935681 2.16361C0.746731 2.3577 0.746696 2.66696 0.935601 2.86109L9.43368 11.5943Z" fill="#C0C0C0"/>
</svg>
