<svg width="166" height="120" viewBox="0 0 166 120" fill="none" xmlns="http://www.w3.org/2000/svg">
<g clip-path="url(#clip0_2150_759)">
<g opacity="0.1">
<g clip-path="url(#clip1_2150_759)">
<rect x="10" y="27.3647" width="100" height="100" rx="50" transform="rotate(-10 10 27.3647)" fill="#FD6C6E"/>
<g clip-path="url(#clip2_2150_759)">
<path d="M37.1097 81.6099C35.5139 72.5598 37.5342 63.2542 42.7263 55.7403C47.9183 48.2265 55.8567 43.1198 64.7951 41.5437C73.7335 39.9676 82.9397 42.0512 90.3885 47.3362C97.8373 52.6212 102.919 60.6745 104.514 69.7247L103.318 122.061L56.1343 130.381L37.1097 81.6099Z" fill="white"/>
<path d="M38.843 86.5169C41.635 86.0246 43.4993 83.3622 43.007 80.5702C42.5147 77.7782 39.8522 75.9139 37.0602 76.4062C34.2682 76.8985 32.404 79.561 32.8963 82.353C33.3886 85.1449 36.051 87.0092 38.843 86.5169Z" fill="white"/>
<path d="M104.563 74.9288C107.355 74.4365 109.219 71.774 108.727 68.982C108.234 66.19 105.572 64.3258 102.78 64.8181C99.988 65.3104 98.1237 67.9728 98.616 70.7648C99.1083 73.5568 101.771 75.4211 104.563 74.9288Z" fill="white"/>
<mask id="mask0_2150_759" style="mask-type:luminance" maskUnits="userSpaceOnUse" x="36" y="41" width="69" height="90">
<path d="M37.1097 81.6099C35.5139 72.5598 37.5342 63.2542 42.7263 55.7403C47.9183 48.2265 55.8567 43.1198 64.7951 41.5437C73.7335 39.9676 82.9397 42.0512 90.3885 47.3362C97.8373 52.6212 102.919 60.6745 104.514 69.7247L103.318 122.061L56.1343 130.381L37.1097 81.6099Z" fill="white"/>
</mask>
<g mask="url(#mask0_2150_759)">
<path d="M31.2843 97.8402C56.1506 74.6326 84.2359 69.6805 115.54 82.9837L108.473 116.808L49.4939 127.208L31.2843 97.8402Z" fill="#4A0F0B" stroke="#4A0F0B" stroke-width="0.25" stroke-linejoin="round"/>
</g>
<path d="M58.4967 67.4138C59.4274 67.2497 59.9157 65.6078 59.5875 63.7464C59.2593 61.8851 58.2388 60.5092 57.3082 60.6733C56.3775 60.8374 55.8891 62.4794 56.2173 64.3407C56.5455 66.202 57.566 67.5779 58.4967 67.4138Z" fill="black"/>
<path d="M79.5611 63.6997C80.4918 63.5356 80.9802 61.8936 80.652 60.0323C80.3238 58.171 79.3033 56.7951 78.3726 56.9592C77.442 57.1233 76.9536 58.7653 77.2818 60.6266C77.61 62.4879 78.6305 63.8638 79.5611 63.6997Z" fill="black"/>
<path d="M68.5248 33.7969L66.9169 33.2116C66.2509 32.9692 65.5144 33.3126 65.272 33.9786L62.4921 41.6163C62.2497 42.2823 62.5931 43.0187 63.2592 43.2611L64.8671 43.8464C65.5331 44.0888 66.2695 43.7454 66.5119 43.0793L69.2918 35.4417C69.5342 34.7757 69.1908 34.0393 68.5248 33.7969Z" fill="white"/>
</g>
</g>
</g>
<rect x="30" y="115.3" width="86.6484" height="2.64706" rx="1.32353" fill="url(#paint0_linear_2150_759)"/>
<g opacity="0.2">
<g clip-path="url(#clip3_2150_759)">
<rect x="51.3652" y="10" width="100" height="100" rx="50" transform="rotate(10 51.3652 10)" fill="#FD6C6E"/>
<g clip-path="url(#clip4_2150_759)">
<path d="M58.2868 70.2459C59.8826 61.1958 64.9638 53.1424 72.4126 47.8574C79.8614 42.5725 89.0676 40.4889 98.006 42.0649C106.944 43.641 114.883 48.7477 120.075 56.2616C125.267 63.7755 127.287 73.081 125.691 82.1312L106.667 130.902L59.4836 122.582L58.2868 70.2459Z" fill="white"/>
<path d="M58.2384 75.4498C61.0304 75.9421 63.6928 74.0779 64.1851 71.2859C64.6774 68.4939 62.8132 65.8315 60.0212 65.3391C57.2292 64.8468 54.5667 66.7111 54.0744 69.5031C53.5821 72.2951 55.4464 74.9575 58.2384 75.4498Z" fill="white"/>
<path d="M123.958 87.038C126.75 87.5303 129.413 85.666 129.905 82.874C130.397 80.082 128.533 77.4196 125.741 76.9273C122.949 76.435 120.286 78.2992 119.794 81.0912C119.302 83.8832 121.166 86.5457 123.958 87.038Z" fill="white"/>
<mask id="mask1_2150_759" style="mask-type:luminance" maskUnits="userSpaceOnUse" x="58" y="41" width="69" height="90">
<path d="M58.2868 70.2459C59.8826 61.1958 64.9638 53.1424 72.4126 47.8574C79.8614 42.5725 89.0676 40.4889 98.006 42.0649C106.944 43.641 114.883 48.7477 120.075 56.2616C125.267 63.7755 127.287 73.081 125.691 82.1312L106.667 130.902L59.4836 122.582L58.2868 70.2459Z" fill="white"/>
</mask>
<g mask="url(#mask1_2150_759)">
<path d="M47.2616 83.505C78.5658 70.2018 106.651 75.154 131.517 98.3616L113.308 127.729L54.3287 117.329L47.2616 83.505Z" fill="#4A0F0B" stroke="#4A0F0B" stroke-width="0.25" stroke-linejoin="round"/>
</g>
<path d="M83.2398 64.2207C84.1704 64.3848 85.1909 63.0089 85.5191 61.1476C85.8473 59.2863 85.3589 57.6443 84.4283 57.4802C83.4976 57.3161 82.4771 58.692 82.1489 60.5533C81.8207 62.4147 82.3091 64.0566 83.2398 64.2207Z" fill="black"/>
<path d="M104.304 67.9348C105.235 68.0989 106.255 66.723 106.584 64.8617C106.912 63.0004 106.423 61.3584 105.493 61.1943C104.562 61.0302 103.542 62.4061 103.213 64.2674C102.885 66.1288 103.374 67.7707 104.304 67.9348Z" fill="black"/>
<path d="M104.161 36.061L102.85 34.9611C102.307 34.5056 101.498 34.5764 101.042 35.1193L95.8178 41.3456C95.3623 41.8885 95.4331 42.698 95.976 43.1536L97.2868 44.2534C97.8298 44.709 98.6392 44.6382 99.0948 44.0953L104.319 37.869C104.775 37.3261 104.704 36.5166 104.161 36.061Z" fill="white"/>
</g>
</g>
</g>
<rect x="30" y="87" width="62" height="3" rx="1.5" fill="url(#paint1_linear_2150_759)"/>
<rect x="41" y="58" width="59" height="3" rx="1.5" fill="url(#paint2_linear_2150_759)"/>
<rect x="34" y="35" width="69" height="3" rx="1.5" fill="url(#paint3_linear_2150_759)"/>
<rect x="19" y="18" width="92" height="3" rx="1.5" fill="url(#paint4_linear_2150_759)"/>
<g clip-path="url(#clip5_2150_759)">
<rect x="92.6982" y="-0.301025" width="100" height="100" rx="50" transform="rotate(30 92.6982 -0.301025)" fill="#FD6C6E"/>
<g clip-path="url(#clip6_2150_759)">
<path d="M78.5969 58.6789C83.1918 50.7204 90.7209 44.8905 99.5281 42.4719C108.335 40.0534 117.699 41.2441 125.559 45.7823C133.419 50.3204 139.133 57.8342 141.442 66.6707C143.751 75.5072 142.466 84.9426 137.872 92.9011L103.314 132.224L61.8214 108.268L78.5969 58.6789Z" fill="white"/>
<path d="M76.7712 63.5523C79.2265 64.9699 82.366 64.1286 83.7835 61.6734C85.201 59.2182 84.3598 56.0787 81.9046 54.6611C79.4493 53.2436 76.3098 54.0848 74.8923 56.5401C73.4748 58.9953 74.316 62.1348 76.7712 63.5523Z" fill="white"/>
<path d="M134.564 96.919C137.019 98.3366 140.159 97.4953 141.576 95.0401C142.994 92.5849 142.153 89.4454 139.698 88.0278C137.242 86.6103 134.103 87.4515 132.685 89.9068C131.268 92.362 132.109 95.5015 134.564 96.919Z" fill="white"/>
<mask id="mask2_2150_759" style="mask-type:luminance" maskUnits="userSpaceOnUse" x="61" y="41" width="82" height="92">
<path d="M78.5969 58.6789C83.1918 50.7204 90.7209 44.8905 99.5281 42.4719C108.335 40.0534 117.699 41.2441 125.559 45.7823C133.419 50.3204 139.133 57.8342 141.442 66.6707C143.751 75.5072 142.466 84.9426 137.872 92.9011L103.314 132.224L61.8214 108.268L78.5969 58.6789Z" fill="white"/>
</mask>
<g mask="url(#mask2_2150_759)">
<path d="M63.701 67.3675C97.6672 65.5733 122.365 79.8325 137.794 110.145L110.639 131.514L58.7733 101.569L63.701 67.3675Z" fill="#4A0F0B" stroke="#4A0F0B" stroke-width="0.25" stroke-linejoin="round"/>
</g>
<path d="M104.107 61.5516C104.925 62.0241 106.354 61.0802 107.299 59.4434C108.245 57.8066 108.347 56.0966 107.529 55.6241C106.71 55.1516 105.281 56.0955 104.336 57.7323C103.391 59.3691 103.288 61.0791 104.107 61.5516Z" fill="black"/>
<path d="M122.63 72.2459C123.448 72.7184 124.878 71.7746 125.823 70.1377C126.768 68.5009 126.871 66.791 126.052 66.3184C125.234 65.8459 123.804 66.7898 122.859 68.4266C121.914 70.0634 121.812 71.7734 122.63 72.2459Z" fill="black"/>
<path d="M133.397 42.2454L132.541 40.7635C132.187 40.1497 131.402 39.9394 130.788 40.2938L123.749 44.3577C123.135 44.712 122.925 45.4969 123.279 46.1107L124.135 47.5926C124.489 48.2064 125.274 48.4167 125.888 48.0623L132.927 43.9984C133.541 43.644 133.751 42.8592 133.397 42.2454Z" fill="white"/>
</g>
</g>
</g>
<defs>
<linearGradient id="paint0_linear_2150_759" x1="30" y1="116.624" x2="116.648" y2="116.624" gradientUnits="userSpaceOnUse">
<stop stop-color="#FEF9C2" stop-opacity="0.2"/>
<stop offset="0.175481" stop-color="#FEEDC4" stop-opacity="0.8"/>
<stop offset="0.350962" stop-color="#FFE1C6"/>
<stop offset="0.850962" stop-color="#470809"/>
</linearGradient>
<linearGradient id="paint1_linear_2150_759" x1="30" y1="88.5" x2="92" y2="88.5" gradientUnits="userSpaceOnUse">
<stop stop-color="#FEF9C2" stop-opacity="0.2"/>
<stop offset="0.175481" stop-color="#FEEDC4" stop-opacity="0.8"/>
<stop offset="0.403846" stop-color="#FFE1C6"/>
<stop offset="0.668269" stop-color="#470809"/>
</linearGradient>
<linearGradient id="paint2_linear_2150_759" x1="41" y1="59.5" x2="100" y2="59.5" gradientUnits="userSpaceOnUse">
<stop stop-color="#FEF9C2" stop-opacity="0.2"/>
<stop offset="0.175481" stop-color="#FEEDC4" stop-opacity="0.8"/>
<stop offset="0.360577" stop-color="#FFE1C6"/>
<stop offset="0.605769" stop-color="white"/>
</linearGradient>
<linearGradient id="paint3_linear_2150_759" x1="34" y1="36.5" x2="103" y2="36.5" gradientUnits="userSpaceOnUse">
<stop stop-color="#FEF9C2" stop-opacity="0.2"/>
<stop offset="0.175481" stop-color="#FEEDC4" stop-opacity="0.8"/>
<stop offset="0.350962" stop-color="#FFE1C6"/>
<stop offset="0.990385" stop-color="#FD6C6E"/>
</linearGradient>
<linearGradient id="paint4_linear_2150_759" x1="19" y1="19.5" x2="111" y2="19.5" gradientUnits="userSpaceOnUse">
<stop stop-color="#FEF9C2" stop-opacity="0.2"/>
<stop offset="0.175481" stop-color="#FEEDC4" stop-opacity="0.8"/>
<stop offset="0.350962" stop-color="#FFE1C6"/>
<stop offset="0.990385" stop-color="#FD6C6E"/>
</linearGradient>
<clipPath id="clip0_2150_759">
<rect width="166" height="120" fill="white"/>
</clipPath>
<clipPath id="clip1_2150_759">
<rect x="10" y="27.3647" width="100" height="100" rx="50" transform="rotate(-10 10 27.3647)" fill="white"/>
</clipPath>
<clipPath id="clip2_2150_759">
<rect width="77" height="94.462" fill="white" transform="translate(25.4072 39.8794) rotate(-10)"/>
</clipPath>
<clipPath id="clip3_2150_759">
<rect x="51.3652" y="10" width="100" height="100" rx="50" transform="rotate(10 51.3652 10)" fill="white"/>
</clipPath>
<clipPath id="clip4_2150_759">
<rect width="77" height="94.462" fill="white" transform="translate(61.5635 27.0295) rotate(10)"/>
</clipPath>
<clipPath id="clip5_2150_759">
<rect x="92.6982" y="-0.301025" width="100" height="100" rx="50" transform="rotate(30 92.6982 -0.301025)" fill="white"/>
</clipPath>
<clipPath id="clip6_2150_759">
<rect width="77" height="94.462" fill="white" transform="translate(96.457 19.1895) rotate(30)"/>
</clipPath>
</defs>
</svg>
