<svg width="50" height="57" viewBox="0 0 50 57" fill="none" xmlns="http://www.w3.org/2000/svg">
<line x1="24.5" y1="15" x2="24.5" y2="30" stroke="#DF40A2" stroke-width="3"/>
<line x1="17" y1="22.438" x2="32" y2="22.438" stroke="#DF40A2" stroke-width="3"/>
<mask id="path-3-inside-1_596_504" fill="white">
<path d="M25.4064 4.47536C25.4159 3.91642 24.9701 3.45348 24.4113 3.46663C18.4468 3.60696 12.7159 5.8774 8.26679 9.88555C3.56647 14.12 0.646335 19.979 0.095086 26.2814C-0.456163 32.5837 1.40247 38.8607 5.29629 43.8468C8.98202 48.5665 14.2317 51.7974 20.0812 52.9711C20.6293 53.081 21.1487 52.7025 21.2364 52.1504V52.1504C21.3241 51.5983 20.947 51.0819 20.3993 50.97C15.0557 49.878 10.2622 46.9168 6.89183 42.6009C3.31332 38.0185 1.60518 32.2498 2.11179 26.4578C2.61841 20.6657 5.30208 15.2812 9.62178 11.3896C13.6903 7.72438 18.925 5.64027 24.377 5.49255C24.9359 5.47741 25.3969 5.03431 25.4064 4.47536V4.47536Z"/>
</mask>
<path d="M25.4064 4.47536C25.4159 3.91642 24.9701 3.45348 24.4113 3.46663C18.4468 3.60696 12.7159 5.8774 8.26679 9.88555C3.56647 14.12 0.646335 19.979 0.095086 26.2814C-0.456163 32.5837 1.40247 38.8607 5.29629 43.8468C8.98202 48.5665 14.2317 51.7974 20.0812 52.9711C20.6293 53.081 21.1487 52.7025 21.2364 52.1504V52.1504C21.3241 51.5983 20.947 51.0819 20.3993 50.97C15.0557 49.878 10.2622 46.9168 6.89183 42.6009C3.31332 38.0185 1.60518 32.2498 2.11179 26.4578C2.61841 20.6657 5.30208 15.2812 9.62178 11.3896C13.6903 7.72438 18.925 5.64027 24.377 5.49255C24.9359 5.47741 25.3969 5.03431 25.4064 4.47536V4.47536Z" stroke="#809CE9" stroke-width="6" mask="url(#path-3-inside-1_596_504)"/>
<mask id="path-4-inside-2_596_504" fill="white">
<path d="M25.4064 4.47536C25.4159 3.91642 24.9701 3.45348 24.4113 3.46663C18.4468 3.60696 12.7159 5.8774 8.26679 9.88555C3.56647 14.12 0.646335 19.979 0.095086 26.2814C-0.456163 32.5837 1.40247 38.8607 5.29629 43.8468C8.98202 48.5665 14.2317 51.7974 20.0812 52.9711C20.6293 53.081 21.1487 52.7025 21.2364 52.1504V52.1504C21.3241 51.5983 20.947 51.0819 20.3993 50.97C15.0557 49.878 10.2622 46.9168 6.89183 42.6009C3.31332 38.0185 1.60518 32.2498 2.11179 26.4578C2.61841 20.6657 5.30208 15.2812 9.62178 11.3896C13.6903 7.72438 18.925 5.64027 24.377 5.49255C24.9359 5.47741 25.3969 5.03431 25.4064 4.47536V4.47536Z"/>
</mask>
<path d="M25.4064 4.47536C25.4159 3.91642 24.9701 3.45348 24.4113 3.46663C18.4468 3.60696 12.7159 5.8774 8.26679 9.88555C3.56647 14.12 0.646335 19.979 0.095086 26.2814C-0.456163 32.5837 1.40247 38.8607 5.29629 43.8468C8.98202 48.5665 14.2317 51.7974 20.0812 52.9711C20.6293 53.081 21.1487 52.7025 21.2364 52.1504V52.1504C21.3241 51.5983 20.947 51.0819 20.3993 50.97C15.0557 49.878 10.2622 46.9168 6.89183 42.6009C3.31332 38.0185 1.60518 32.2498 2.11179 26.4578C2.61841 20.6657 5.30208 15.2812 9.62178 11.3896C13.6903 7.72438 18.925 5.64027 24.377 5.49255C24.9359 5.47741 25.3969 5.03431 25.4064 4.47536V4.47536Z" stroke="#809CE9" stroke-width="6" mask="url(#path-4-inside-2_596_504)"/>
<path d="M22.9196 0.540381C22.6657 0.28654 22.2542 0.28654 22.0003 0.540381C21.7465 0.794221 21.7465 1.20578 22.0003 1.45962L22.9196 0.540381ZM22.46 1L22.0003 1.45962L25.6066 5.06586L26.0662 4.60624L26.5258 4.14663L22.9196 0.540381L22.46 1Z" fill="#809CE9"/>
<path d="M22.0083 7.43102C21.776 7.70475 21.8096 8.11493 22.0834 8.34719C22.3571 8.57945 22.7673 8.54583 22.9995 8.2721L22.0083 7.43102ZM22.5039 7.85156L22.9995 8.2721L26.3315 4.34521L25.8359 3.92467L25.3403 3.50413L22.0083 7.43102L22.5039 7.85156Z" fill="#809CE9"/>
<mask id="path-7-inside-3_596_504" fill="white">
<path d="M24.5936 52.4441C24.5841 53.003 25.0299 53.4659 25.5887 53.4528C31.5532 53.3125 37.2841 51.042 41.7332 47.0339C46.4335 42.7994 49.3537 36.9404 49.9049 30.6381C50.4562 24.3357 48.5975 18.0587 44.7037 13.0726C41.018 8.3529 35.7683 5.12202 29.9188 3.94836C29.3707 3.83839 28.8513 4.21691 28.7636 4.76901V4.76901C28.6759 5.32111 29.053 5.83753 29.6007 5.94946C34.9443 7.04143 39.7378 10.0027 43.1082 14.3186C46.6867 18.901 48.3948 24.6697 47.8882 30.4617C47.3816 36.2537 44.6979 41.6383 40.3782 45.5298C36.3097 49.1951 31.075 51.2792 25.623 51.4269C25.0641 51.442 24.6031 51.8851 24.5936 52.4441V52.4441Z"/>
</mask>
<path d="M24.5936 52.4441C24.5841 53.003 25.0299 53.4659 25.5887 53.4528C31.5532 53.3125 37.2841 51.042 41.7332 47.0339C46.4335 42.7994 49.3537 36.9404 49.9049 30.6381C50.4562 24.3357 48.5975 18.0587 44.7037 13.0726C41.018 8.3529 35.7683 5.12202 29.9188 3.94836C29.3707 3.83839 28.8513 4.21691 28.7636 4.76901V4.76901C28.6759 5.32111 29.053 5.83753 29.6007 5.94946C34.9443 7.04143 39.7378 10.0027 43.1082 14.3186C46.6867 18.901 48.3948 24.6697 47.8882 30.4617C47.3816 36.2537 44.6979 41.6383 40.3782 45.5298C36.3097 49.1951 31.075 51.2792 25.623 51.4269C25.0641 51.442 24.6031 51.8851 24.5936 52.4441V52.4441Z" stroke="#809CE9" stroke-width="6" mask="url(#path-7-inside-3_596_504)"/>
<mask id="path-8-inside-4_596_504" fill="white">
<path d="M24.5936 52.4441C24.5841 53.003 25.0299 53.4659 25.5887 53.4528C31.5532 53.3125 37.2841 51.042 41.7332 47.0339C46.4335 42.7994 49.3537 36.9404 49.9049 30.6381C50.4562 24.3357 48.5975 18.0587 44.7037 13.0726C41.018 8.3529 35.7683 5.12202 29.9188 3.94836C29.3707 3.83839 28.8513 4.21691 28.7636 4.76901V4.76901C28.6759 5.32111 29.053 5.83753 29.6007 5.94946C34.9443 7.04143 39.7378 10.0027 43.1082 14.3186C46.6867 18.901 48.3948 24.6697 47.8882 30.4617C47.3816 36.2537 44.6979 41.6383 40.3782 45.5298C36.3097 49.1951 31.075 51.2792 25.623 51.4269C25.0641 51.442 24.6031 51.8851 24.5936 52.4441V52.4441Z"/>
</mask>
<path d="M24.5936 52.4441C24.5841 53.003 25.0299 53.4659 25.5887 53.4528C31.5532 53.3125 37.2841 51.042 41.7332 47.0339C46.4335 42.7994 49.3537 36.9404 49.9049 30.6381C50.4562 24.3357 48.5975 18.0587 44.7037 13.0726C41.018 8.3529 35.7683 5.12202 29.9188 3.94836C29.3707 3.83839 28.8513 4.21691 28.7636 4.76901V4.76901C28.6759 5.32111 29.053 5.83753 29.6007 5.94946C34.9443 7.04143 39.7378 10.0027 43.1082 14.3186C46.6867 18.901 48.3948 24.6697 47.8882 30.4617C47.3816 36.2537 44.6979 41.6383 40.3782 45.5298C36.3097 49.1951 31.075 51.2792 25.623 51.4269C25.0641 51.442 24.6031 51.8851 24.5936 52.4441V52.4441Z" stroke="#809CE9" stroke-width="6" mask="url(#path-8-inside-4_596_504)"/>
<path d="M27.0804 56.3791C27.3343 56.6329 27.7458 56.6329 27.9997 56.3791C28.2535 56.1252 28.2535 55.7137 27.9997 55.4598L27.0804 56.3791ZM27.54 55.9194L27.9997 55.4598L24.3934 51.8536L23.9338 52.3132L23.4742 52.7728L27.0804 56.3791L27.54 55.9194Z" fill="#809CE9"/>
<path d="M27.9917 49.4884C28.224 49.2147 28.1904 48.8045 27.9166 48.5722C27.6429 48.34 27.2327 48.3736 27.0005 48.6473L27.9917 49.4884ZM27.4961 49.0679L27.0005 48.6473L23.6685 52.5742L24.1641 52.9948L24.6597 53.4153L27.9917 49.4884L27.4961 49.0679Z" fill="#809CE9"/>
<path d="M17 35.5H32V38.5H17V35.5Z" fill="#35C8CA"/>
</svg>
