<svg width="59" height="44" viewBox="0 0 59 44" fill="none" xmlns="http://www.w3.org/2000/svg">
<rect x="31.0435" y="0.629118" width="28" height="34" rx="6.5" transform="rotate(17.8365 31.0435 0.629118)" fill="white" stroke="#A7A7A7"/>
<path d="M35.4099 24.6197L35.7266 23.6034L38.8585 22.1593C39.6851 21.7584 40.1394 21.4943 40.3099 20.9644C40.5014 20.3694 40.1655 19.851 39.5519 19.6536C38.9198 19.4502 38.3821 19.7183 38.1757 20.3598L36.8464 19.932C37.2618 18.609 38.5072 18.0864 39.9295 18.544C41.3704 19.0077 42.0647 20.1338 41.6878 21.3052C41.4425 22.0675 40.8673 22.5799 39.0783 23.3892L37.7357 24.0549L37.7237 24.0921L40.5962 25.0164L40.2253 26.1691L35.4099 24.6197Z" fill="#364153"/>
<rect x="0.660545" y="12.09" width="28" height="34" rx="6.5" transform="rotate(-24.0914 0.660545 12.09)" fill="white" stroke="#A7A7A7"/>
<path d="M20.4813 19.0338L23.3674 25.4883L22.0212 26.0902L19.7052 20.9106L19.6695 20.9265L18.6042 22.5154L18.074 21.3297L19.2154 19.5999L20.4813 19.0338Z" fill="#364153"/>
</svg>
