<svg width="24" height="24" viewBox="0 0 24 24" fill="none" xmlns="http://www.w3.org/2000/svg">
  <path d="M12 17C14.7614 17 17 14.7614 17 12C17 9.23858 14.7614 7 12 7C9.23858 7 7 9.23858 7 12C7 14.7614 9.23858 17 12 17Z" stroke="#4A0F0B" stroke-width="2"/>
  <path d="M10 20H14M11 22H13" stroke="#4A0F0B" stroke-width="2" stroke-linecap="round"/>
  <path d="M12 7V5M17 9L18.5 7.5M19 12H21M17 15L18.5 16.5M12 17V19M7 15L5.5 16.5M5 12H3M7 9L5.5 7.5" stroke="#4A0F0B" stroke-width="1.5" stroke-linecap="round"/>
</svg>
