<svg width="16" height="16" viewBox="0 0 16 16" fill="none" xmlns="http://www.w3.org/2000/svg">
<path d="M1.24716 12.5509L1.00204 14.6919C0.996638 14.7396 1.00201 14.788 1.01775 14.8334C1.03349 14.8788 1.05921 14.9201 1.09301 14.9543C1.1268 14.9884 1.16783 15.0146 1.21306 15.0308C1.2583 15.0471 1.30659 15.053 1.3544 15.0481L3.48393 14.803C3.55608 14.794 3.62334 14.7617 3.67543 14.711L14.8133 3.53102C14.8725 3.47197 14.9194 3.40182 14.9515 3.32459C14.9835 3.24737 15 3.16459 15 3.08099C15 2.99738 14.9835 2.9146 14.9515 2.83738C14.9194 2.76015 14.8725 2.69001 14.8133 2.63095L13.377 1.18701C13.2571 1.06726 13.0946 1 12.9251 1C12.7556 1 12.5931 1.06726 12.4731 1.18701L1.33525 12.3632C1.28574 12.4142 1.25473 12.4802 1.24716 12.5509Z" stroke="white" stroke-width="1.13636"/>
<path d="M10.9717 2.69617L13.2812 5.07082" stroke="white" stroke-width="1.13636"/>
</svg>
