<svg width="206" height="53" viewBox="0 0 206 53" fill="none" xmlns="http://www.w3.org/2000/svg">
<path d="M49.2 51.6H-1.95601e-06L19.08 18H0.899998V1.2H49.8L30.72 34.8H49.2V51.6ZM99.0047 51.6H49.8047L68.8847 18H50.7047V1.2L99.6047 1.2L80.5247 34.8H99.0047V51.6ZM130.209 52.8C112.389 52.8 100.809 42.78 100.209 27.54H121.269C121.689 31.44 124.869 34.8 130.209 34.8C135.909 34.8 139.209 30.84 139.209 26.34C139.209 21.84 135.969 18 130.209 18C124.809 18 121.329 21.42 121.269 26.94L100.209 25.14C100.869 9.96 112.449 2.38419e-08 130.209 2.38419e-08C148.449 2.38419e-08 160.209 10.5 160.209 26.4C160.209 42.3 148.449 52.8 130.209 52.8ZM205.181 34.2V51.6H161.981V1.2H182.381V34.2H205.181Z" fill="#FD6C6E"/>
</svg>
